<svg width="24" height="24" viewBox="0 0 24 24" fill="none" xmlns="http://www.w3.org/2000/svg">
<g opacity="0.3">
<path fill-rule="evenodd" clip-rule="evenodd" d="M4.40275 11.6221C5.51875 12.0051 6.40775 12.9391 6.77975 14.1231L6.81975 14.2431C7.24575 15.4991 7.07275 16.8511 6.35875 17.8651C6.22875 18.0491 6.25775 18.2691 6.39475 18.3731L8.46675 19.9471C8.53975 20.0021 8.61075 20.0021 8.65475 19.9971C8.70475 19.9891 8.77775 19.9621 8.83675 19.8781L9.06775 19.5501C9.75675 18.5731 10.8667 17.9701 12.0387 17.9361C13.3547 17.9091 14.5367 18.5121 15.2727 19.5751L15.3907 19.7461C15.4497 19.8301 15.5217 19.8581 15.5727 19.8661C15.6167 19.8751 15.6887 19.8721 15.7607 19.8161L17.8217 18.2611C17.9657 18.1531 17.9977 17.9221 17.8907 17.7671L17.6307 17.3921C16.9607 16.4241 16.7617 15.1681 17.0987 14.0331C17.4647 12.7971 18.3957 11.8191 19.5907 11.4191L19.7917 11.3511C19.9527 11.2981 20.0397 11.0981 19.9827 10.9141L19.1957 8.39309C19.1587 8.27509 19.0827 8.22209 19.0407 8.20009C18.9807 8.16909 18.9157 8.16409 18.8537 8.18509L18.5137 8.29809C17.3507 8.68509 16.0677 8.47509 15.0827 7.73409L14.9747 7.65309C14.0387 6.94909 13.4817 5.81409 13.4857 4.61809L13.4877 4.33809C13.4877 4.20509 13.4247 4.12209 13.3867 4.08409C13.3507 4.04709 13.2897 4.00309 13.2037 4.00309L10.6567 4.00009C10.5007 4.00009 10.3737 4.14909 10.3727 4.33309L10.3717 4.57509C10.3667 5.79009 9.79775 6.94609 8.84975 7.66909L8.72075 7.76709C7.67775 8.56009 6.31775 8.78409 5.08575 8.36409C5.03875 8.34809 4.99475 8.35109 4.95275 8.37309C4.92075 8.38909 4.86275 8.43009 4.83475 8.52109L4.01775 11.1171C3.95875 11.3061 4.05575 11.5031 4.23875 11.5661L4.40275 11.6221ZM8.61375 22.0001C8.12775 22.0001 7.65575 21.8421 7.25775 21.5391L5.18575 19.9661C4.19575 19.2161 3.97675 17.7731 4.69675 16.7501C5.07075 16.2201 5.14775 15.5391 4.92775 14.8931L4.87275 14.7251C4.68975 14.1431 4.27175 13.6911 3.75475 13.5141H3.75375L3.59075 13.4571C2.37275 13.0401 1.72275 11.7491 2.10975 10.5171L2.92575 7.92209C3.11075 7.33509 3.50975 6.86109 4.04975 6.58809C4.57775 6.32209 5.17475 6.28109 5.73275 6.47209C6.33175 6.67609 6.99675 6.56509 7.50975 6.17509L7.63875 6.07709C8.09475 5.72909 8.36975 5.16409 8.37175 4.56709L8.37275 4.32609C8.37775 3.04209 9.40275 2.00009 10.6557 2.00009H10.6597L13.2067 2.00309C13.8087 2.00409 14.3767 2.24209 14.8047 2.67309C15.2477 3.11809 15.4897 3.71309 15.4877 4.34809L15.4857 4.62709C15.4837 5.19309 15.7427 5.72809 16.1797 6.05609L16.2867 6.13709C16.7457 6.48209 17.3437 6.58109 17.8807 6.40109L18.2197 6.28809C18.7967 6.09609 19.4107 6.14309 19.9517 6.42009C20.5067 6.70409 20.9167 7.19309 21.1047 7.79809L21.8917 10.3191C22.2717 11.5371 21.6137 12.8511 20.4267 13.2481L20.2257 13.3151C19.6497 13.5091 19.1967 13.9891 19.0157 14.6011C18.8497 15.1621 18.9457 15.7791 19.2747 16.2531L19.5347 16.6281C20.2487 17.6601 20.0207 19.1081 19.0267 19.8571L16.9657 21.4131C16.4707 21.7871 15.8637 21.9381 15.2547 21.8411C14.6407 21.7421 14.1047 21.4021 13.7457 20.8841L13.6277 20.7121C13.2777 20.2081 12.7177 19.9021 12.1307 19.9351C11.5427 19.9511 11.0347 20.2301 10.7027 20.7021L10.4717 21.0301C10.1097 21.5431 9.57275 21.8781 8.96175 21.9741C8.84475 21.9921 8.72875 22.0001 8.61375 22.0001ZM11.9999 10.5C11.1729 10.5 10.4999 11.173 10.4999 12C10.4999 12.827 11.1729 13.5 11.9999 13.5C12.8269 13.5 13.4999 12.827 13.4999 12C13.4999 11.173 12.8269 10.5 11.9999 10.5ZM11.9999 15.5C10.0699 15.5 8.49995 13.93 8.49995 12C8.49995 10.07 10.0699 8.49999 11.9999 8.49999C13.9299 8.49999 15.4999 10.07 15.4999 12C15.4999 13.93 13.9299 15.5 11.9999 15.5Z" fill="white"/>
</g>
</svg>
